<?xml version="1.0" encoding="utf-8"?>
<!-- Generator: Adobe Illustrator 18.1.1, SVG Export Plug-In . SVG Version: 6.00 Build 0)  -->
<svg version="1.1"
	 id="svg3336" xmlns:cc="http://creativecommons.org/ns#" xmlns:rdf="http://www.w3.org/1999/02/22-rdf-syntax-ns#" xmlns:dc="http://purl.org/dc/elements/1.1/" xmlns:inkscape="http://www.inkscape.org/namespaces/inkscape" xmlns:sodipodi="http://sodipodi.sourceforge.net/DTD/sodipodi-0.dtd" xmlns:svg="http://www.w3.org/2000/svg" inkscape:version="0.91 r13725" sodipodi:docname="SignReferences.svg"
	 xmlns="http://www.w3.org/2000/svg" xmlns:xlink="http://www.w3.org/1999/xlink" x="0px" y="0px" width="354.3px" height="354.3px"
	 viewBox="-120 243.6 354.3 354.3" enable-background="new -120 243.6 354.3 354.3" xml:space="preserve">
<g id="Calque_2">
	<rect x="-119.9" y="243.6" display="none" fill="#C64D9B" stroke="#EC2024" stroke-miterlimit="10" width="354.3" height="354.3"/>
	<ellipse fill="#FFFFFF" cx="57.1" cy="420.8" rx="177.6" ry="176"/>
	<g>
		<path fill="#44A948" d="M57.7,559.8c-18.9,0-36.9-3.8-53.3-10.7l-12.1,29.4c20.2,8.4,42.3,13.1,65.4,13.1
			c59.3,0,111.5-30.3,142.2-76.3h-40.5C134,542.6,97.9,559.8,57.7,559.8z"/>
		<path fill="#44A948" d="M57.7,280c18.9,0,36.9,3.8,53.3,10.7l12.1-29.4c-20.2-8.4-42.2-13.1-65.4-13.1
			c-59.3,0-111.5,30.3-142.2,76.3h40.5C-18.5,297.2,17.6,280,57.7,280z"/>
	</g>
	<g display="none">
		<path display="inline" fill="#F58B1F" d="M57.7,559.8c-18.9,0-36.9-3.8-53.3-10.7l-12.1,29.4c20.2,8.4,42.3,13.1,65.4,13.1
			c59.3,0,111.5-30.3,142.2-76.3h-40.5C134,542.6,97.9,559.8,57.7,559.8z"/>
		<path display="inline" fill="#F58B1F" d="M57.7,280c18.9,0,36.9,3.8,53.3,10.7l12.1-29.4c-20.2-8.4-42.2-13.1-65.4-13.1
			c-59.3,0-111.5,30.3-142.2,76.3h40.5C-18.5,297.2,17.6,280,57.7,280z"/>
	</g>
</g>
<sodipodi:namedview  id="namedview3338" pagecolor="#ffffff" bordercolor="#666666" inkscape:cy="403.80921" objecttolerance="10" inkscape:zoom="0.72124892" showgrid="false" gridtolerance="10" guidetolerance="10" borderopacity="1" inkscape:cx="-81.675577" inkscape:current-layer="layer3" inkscape:window-maximized="1" inkscape:window-y="-8" inkscape:window-x="-8" inkscape:window-width="1920" inkscape:pageshadow="2" inkscape:pageopacity="0" inkscape:window-height="1030">
	</sodipodi:namedview>
<g id="g3344" transform="matrix(1.25,0,0,-1.25,0,354.325)" inkscape:label="OneFilesystem" inkscape:groupmode="layer" display="none">
	<g id="g3346" transform="matrix(0,1,-1,0,283.46,0)" display="inline">
		<g>
			<defs>
				<rect id="SVGID_1_" x="-230.3" y="60.6" width="354.3" height="354.3"/>
			</defs>
			<clipPath id="SVGID_2_">
				<use xlink:href="#SVGID_1_"  overflow="visible"/>
			</clipPath>
			<g id="g3348" clip-path="url(#SVGID_2_)">
				<g id="g3354" transform="translate(215.4285,0)">
					<path id="path3356" inkscape:connector-curvature="0" fill="#FFFFFF" d="M-194.9,96h-147.4c-37.4,0-68,30.6-68,68v147.4
						c0,37.4,30.6,68,68,68l147.4,0c37.4,0,68-30.6,68-68V164C-126.8,126.6-157.4,96-194.9,96"/>
				</g>
				<g id="g3358" transform="translate(212.9304,37.7131)">
					<path id="path3360" inkscape:connector-curvature="0" fill="#44AA00" d="M-194.9,96h-142.2c-14.7,0-27.1,9.8-31.1,23.2H-402
						c4.5-31.8,31.8-56.3,64.9-56.3h142.2c33.1,0,60.4,24.5,64.9,56.3h-33.8C-167.8,105.8-180.2,96-194.9,96 M-337.1,303.1h142.2
						c14.7,0,27.1-9.8,31.1-23.2h33.8c-4.5,31.8-31.8,56.3-64.9,56.3h-142.2c-33.1,0-60.4-24.5-64.9-56.3h33.8
						C-364.2,293.3-351.8,303-337.1,303.1"/>
				</g>
			</g>
		</g>
	</g>
	
		<text transform="matrix(0.8 0 0 -0.8 -35.9589 -124.861)" display="inline" fill="#FFFFFF" font-family="'Arial-Black'" font-size="192.7866">1</text>
</g>
<g id="layer1" inkscape:label="Lock" inkscape:groupmode="layer" display="none">
	<path id="path4213" inkscape:connector-curvature="0" display="inline" d="M-87.4-32.5V-86c0-6.4,2.2-11.8,6.7-16.2
		c4.5-4.5,9.9-6.7,16.2-6.7v-30.5c0-19.1,6.7-35.3,20-48.7s29.6-20,48.7-20s35.3,6.7,48.7,20c13.4,13.4,20,29.6,20,48.7v30.5
		c6.4,0,11.8,2.2,16.2,6.7s6.7,9.9,6.7,16.2v53.4c0,19.1-6.7,35.3-20,48.7c-13.4,13.4-29.6,20-48.7,20h-45.8
		c-19.1,0-35.3-6.7-48.7-20C-80.7,2.8-87.4-13.5-87.4-32.5z M-72.1-32.5c0,14.6,5.2,27.2,15.7,37.7c10.5,10.5,23.1,15.7,37.7,15.7
		h45.8c14.6,0,27.2-5.2,37.7-15.7s15.7-23.1,15.7-37.7V-86c0-2.2-0.7-4.1-2.1-5.5c-1.4-1.4-3.3-2.1-5.5-2.1H-64.5
		c-2.2,0-4.1,0.7-5.5,2.1c-1.4,1.4-2.1,3.3-2.1,5.5L-72.1-32.5L-72.1-32.5z M-49.2-108.9H-34v-30.5c0-10.5,3.7-19.5,11.2-27
		c7.5-7.5,16.5-11.2,27-11.2c10.5,0,19.5,3.7,27,11.2c7.5,7.5,11.2,16.5,11.2,27v30.5h15.3v-30.5c0-14.6-5.2-27.2-15.7-37.7
		c-10.5-10.5-23.1-15.7-37.7-15.7s-27.2,5.2-37.7,15.7c-10.5,10.5-15.7,23.1-15.7,37.7L-49.2-108.9L-49.2-108.9z M-26.3-108.9h61.1
		v-30.5c0-8.6-2.9-15.8-8.8-21.7C20-167,12.8-170,4.2-170s-15.8,2.9-21.7,8.8c-5.9,5.9-8.8,13.1-8.8,21.7V-108.9z M-11.1-47.8
		c0-4.1,1.5-7.7,4.5-10.7c3-3,6.6-4.5,10.7-4.5c4.1,0,7.7,1.5,10.7,4.5c3,3,4.5,6.6,4.5,10.7c0,4.5-1.7,11.3-5.2,20.5
		c-2.2,6.7-5.6,10-10,10c-4.5,0-7.8-3.3-10-10C-9.3-36.5-11.1-43.4-11.1-47.8z"/>
</g>
<g id="layer3" inkscape:label="Lock2" inkscape:groupmode="layer">
	<path id="path4270" inkscape:connector-curvature="0" d="M-64.9,421.5c0-33.7,11.9-62.5,35.8-86.4s52.6-35.8,86.4-35.8
		s62.5,11.9,86.4,35.8s35.8,52.6,35.8,86.4s-11.9,62.5-35.8,86.4c-23.9,23.9-52.6,35.8-86.4,35.8s-62.5-11.9-86.4-35.8
		C-53,484-64.9,455.2-64.9,421.5L-64.9,421.5z M-2,476.3h118.3v-74.4h-74v-19.1c0-4.5,1.6-8.3,4.8-11.5c3.2-3.2,7.2-4.8,11.9-4.8
		c4.5-0.3,8.2,1,11.2,4.1c3,3,4.7,6.9,5,11.7h23.9c-0.3-10.8-4.4-20.3-12.2-28.4c-7.8-8.1-17.1-11.8-27.9-11.2
		c-11.5,0.3-20.8,4.2-28.2,11.7c-7.3,7.5-11.5,16.9-12.4,28.4v19.1H-2L-2,476.3L-2,476.3z"/>
</g>
<g id="layer2" inkscape:label="Pencil" inkscape:groupmode="layer" display="none">
	<path id="path4188" inkscape:connector-curvature="0" display="inline" d="M171.7,579.6c2.1,2.1,5.8,1.8,11-0.9
		c5.2-2.7,10.2-6.4,15-11.1s8.5-9.6,11.2-14.8c2.7-5.2,3-8.9,0.7-11.1L167,499.2c-4.9,7-10.6,13.9-17.3,20.5c-3,3-6.2,5.9-9.6,8.8
		c-3.4,2.9-6,5-8,6.4l-2.9,2.1L171.7,579.6z M126.5,527.8c-3,1-5.2,0.8-6.6-0.7c-1.4-1.4-4-2.9-7.8-4.4c-3.8-1.5-7.7-2.6-11.6-3.3
		l-3.9-0.7c-3.9-0.7-7.9-2.6-11.8-5.7c-4-3.1-6.7-6.5-8.3-10.1l-33.9-75.9c-1.6-3.7-1.9-5.8-1-6.4c0.9-0.6,2.8,0.5,5.6,3.4
		l38.6,38.8c5.5,5.4,8.9,8.8,10.2,10.1c-1.3,2.7-1.7,5.6-1.2,8.7c0.5,3.1,1.8,5.8,4,8.1c2.9,2.9,6.3,4.3,10.4,4.3s7.5-1.4,10.4-4.3
		c2.9-2.9,4.4-6.4,4.4-10.4c0-4-1.5-7.5-4.4-10.4c-2.2-2.2-4.8-3.5-7.9-4.1s-6-0.1-8.7,1.2c-1.9-1.8-5.3-5.2-10.2-10.1L54,417.1
		c-2.9-2.9-4-4.7-3.4-5.6c0.6-0.9,2.8-0.5,6.4,1l75.9,33.9c3.6,1.6,7,4.4,10,8.4c3.1,3.9,5,7.9,5.6,11.9l0.7,3.8
		c0.7,3.9,1.8,7.8,3.3,11.6c1.5,3.8,3,6.4,4.4,7.8c1.4,1.4,1.6,3.6,0.7,6.6c-1,3-2.9,5.9-5.8,8.7l-16.7,16.9
		C132.4,524.9,129.5,526.9,126.5,527.8L126.5,527.8z"/>
</g>
</svg>
