<?xml version="1.0" encoding="UTF-8" standalone="no"?>
<!-- Created with Inkscape (http://www.inkscape.org/) -->

<svg
   xmlns:dc="http://purl.org/dc/elements/1.1/"
   xmlns:cc="http://creativecommons.org/ns#"
   xmlns:rdf="http://www.w3.org/1999/02/22-rdf-syntax-ns#"
   xmlns:svg="http://www.w3.org/2000/svg"
   xmlns="http://www.w3.org/2000/svg"
   xmlns:sodipodi="http://sodipodi.sourceforge.net/DTD/sodipodi-0.dtd"
   xmlns:inkscape="http://www.inkscape.org/namespaces/inkscape"
   id="svg3336"
   version="1.1"
   inkscape:version="0.91 r13725"
   xml:space="preserve"
   width="354.32501"
   height="354.32501"
   viewBox="0 0 354.32501 354.32501"
   sodipodi:docname="SignReferences.svg"><metadata
     id="metadata3342"><rdf:RDF><cc:Work
         rdf:about=""><dc:format>image/svg+xml</dc:format><dc:type
           rdf:resource="http://purl.org/dc/dcmitype/StillImage" /><dc:title></dc:title></cc:Work></rdf:RDF></metadata><defs
     id="defs3340"><clipPath
       clipPathUnits="userSpaceOnUse"
       id="clipPath3350"><path
         d="m 0,283.46 283.46,0 L 283.46,0 0,0 0,283.46 Z"
         id="path3352"
         inkscape:connector-curvature="0" /></clipPath></defs><sodipodi:namedview
     pagecolor="#ffffff"
     bordercolor="#666666"
     borderopacity="1"
     objecttolerance="10"
     gridtolerance="10"
     guidetolerance="10"
     inkscape:pageopacity="0"
     inkscape:pageshadow="2"
     inkscape:window-width="1920"
     inkscape:window-height="1030"
     id="namedview3338"
     showgrid="false"
     inkscape:zoom="0.72124892"
     inkscape:cx="-81.675577"
     inkscape:cy="403.80921"
     inkscape:window-x="-8"
     inkscape:window-y="-8"
     inkscape:window-maximized="1"
     inkscape:current-layer="layer3" /><g
     id="g3344"
     inkscape:groupmode="layer"
     inkscape:label="OneFilesystem"
     transform="matrix(1.25,0,0,-1.25,0,354.325)"><g
       id="g3346"
       transform="matrix(0,1,-1,0,283.46,0)"><g
         id="g3348"
         clip-path="url(#clipPath3350)"><g
           id="g3354"
           transform="translate(215.4285,0)"><path
             d="m 0,0 -147.397,0 c -37.417,0 -68.031,30.614 -68.031,68.031 l 0,147.397 c 0,37.418 30.614,68.032 68.031,68.032 L 0,283.46 c 37.417,0 68.031,-30.614 68.031,-68.032 l 0,-147.397 C 68.031,30.614 37.417,0 0,0"
             style="fill:#ffffff;fill-opacity:1;fill-rule:nonzero;stroke:none"
             id="path3356"
             inkscape:connector-curvature="0" /></g><g
           id="g3358"
           transform="translate(212.9304,37.7131)"><path
             d="m 0,0 -142.227,0 c -14.685,0.029 -27.07,9.785 -31.062,23.163 l -33.834,0 c 4.511,-31.809 31.827,-56.29 64.896,-56.29 l 142.227,0 c 33.072,0 60.385,24.481 64.883,56.29 l -33.82,0 C 27.063,9.785 14.682,0.029 0,0 m -142.227,207.059 142.227,0 c 14.685,-0.021 27.069,-9.784 31.066,-23.176 l 33.832,0 C 60.391,215.713 33.076,240.195 0,240.195 l -142.227,0 c -33.074,0 -60.394,-24.463 -64.898,-56.312 l 33.833,0 c 3.989,13.392 16.376,23.155 31.065,23.176"
             style="fill:#44aa00;fill-opacity:1;fill-rule:nonzero;stroke:none"
             id="path3360"
             inkscape:connector-curvature="0" /></g></g></g><text
       transform="matrix(1,0,0,-1,60.041,69.9912)"
       style="font-variant:normal;font-weight:900;font-stretch:normal;font-size:154.22929382px;font-family:'Blackoak Std';-inkscape-font-specification:BlackoakStd;writing-mode:lr-tb;fill:#ffffff;fill-opacity:1;fill-rule:nonzero;stroke:none"
       id="text3378"><tspan
         x="0"
         y="0"
         id="tspan3380">1</tspan></text>
</g><g
     inkscape:groupmode="layer"
     id="layer1"
     inkscape:label="Lock"
     style="display:none"><path
       inkscape:connector-curvature="0"
       d="m 32.603916,-276.11282 0,-53.44112 q 0,-9.54306 6.68015,-16.2232 6.68014,-6.68014 16.2232,-6.68014 l 0,-30.53778 q 0,-28.62917 20.04043,-48.6696 20.04041,-20.04042 48.669584,-20.04042 28.62917,0 48.6696,20.04042 20.04042,20.04043 20.04042,48.6696 l 0,30.53778 q 9.54306,0 16.2232,6.68014 6.68014,6.68014 6.68014,16.22319 l 0,53.44113 q 0,28.62917 -20.04043,48.66959 -20.04042,20.04043 -48.66959,20.04043 l -45.80667,0 q -28.629184,0 -48.669614,-20.04043 -20.04042,-20.04042 -20.04042,-48.66959 z m 15.2689,0 q 0,21.94903 15.74605,37.69508 15.74604,15.74604 37.695084,15.74604 l 45.80667,0 q 21.94903,0 37.69508,-15.74604 15.74604,-15.74605 15.74604,-37.69508 l 0,-53.44112 q 0,-3.34007 -2.14731,-5.48738 -2.14731,-2.14731 -5.48738,-2.14731 l -137.420034,0 q -3.34008,0 -5.48739,2.14731 -2.14731,2.14731 -2.14731,5.48738 l 0,53.44112 z m 22.90334,-76.34446 15.26889,0 0,-30.53778 q 0,-15.74605 11.21297,-26.95926 11.212984,-11.21322 26.959264,-11.21297 15.74629,2.5e-4 26.95926,11.21297 11.21297,11.21273 11.21297,26.95926 l 0,30.53778 15.2689,0 0,-30.53778 q 0,-21.94903 -15.74605,-37.69507 -15.74605,-15.74605 -37.69508,-15.74605 -21.94902,0 -37.695074,15.74605 -15.74605,15.74604 -15.74605,37.69507 l 0,30.53778 z m 22.90334,0 61.075574,0 0,-30.53778 q 0,-12.88313 -8.82721,-21.71058 -8.82721,-8.82744 -21.71058,-8.8272 -12.88337,2.5e-4 -21.71057,8.8272 -8.827214,8.82696 -8.827214,21.71058 l 0,30.53778 z m 15.268894,61.07557 q 0,-6.20299 4.53283,-10.73607 4.53283,-4.53307 10.73606,-4.53283 6.20324,2.5e-4 10.73606,4.53283 4.53283,4.53259 4.53283,10.73607 0,6.68014 -5.24868,20.51757 -3.34006,10.02021 -10.02021,10.02021 -6.68014,0 -10.02021,-10.02021 -5.24868,-13.83743 -5.24868,-20.51757 z"
       id="path4213" /></g><g
     inkscape:groupmode="layer"
     id="layer3"
     inkscape:label="Lock2"><path
       inkscape:connector-curvature="0"
       d="m 55.055327,177.89151 q 0,-50.57821 35.786469,-86.36468 35.786474,-35.78646 86.364674,-35.78646 50.57821,0 86.36467,35.78646 35.78647,35.78647 35.78647,86.36468 0,50.5782 -35.78647,86.36467 -35.78646,35.78647 -86.36467,35.78647 -50.5782,0 -86.364674,-35.78647 -35.786469,-35.78647 -35.786469,-86.36467 z m 62.984173,54.87258 118.33393,0 0,-74.43585 -73.9587,0 0,-19.08612 q 0,-6.68014 4.77153,-11.45166 4.77152,-4.77153 11.92882,-4.77153 6.68014,-0.47715 11.21298,4.05592 4.53283,4.53308 5.00998,11.69037 l 23.85764,0 q -0.47715,-16.22321 -12.16751,-28.39072 -11.69038,-12.16753 -27.91358,-11.21297 -17.1775,0.47715 -28.15202,11.69036 -10.97451,11.21322 -12.40597,28.39072 l 0,19.08612 -20.51757,0 0,74.43585 z"
       id="path4270" /></g><g
     inkscape:groupmode="layer"
     id="layer2"
     inkscape:label="Pencil"
     style="display:none"><path
       inkscape:connector-curvature="0"
       d="m 291.69551,336.06586 q 3.17228,3.17227 11.00965,-0.88637 7.83738,-4.05865 14.975,-11.10297 7.13761,-7.04431 11.24291,-14.78838 4.1053,-7.74408 0.74641,-11.10296 L 287.0304,255.63941 q -7.27756,10.54314 -17.2609,20.52646 -4.4785,4.47851 -9.56345,8.81706 -5.08498,4.33855 -7.97734,6.3912 l -2.89237,2.14594 z m -45.20488,-51.78269 q -4.52516,1.49283 -6.57781,-0.65312 -2.14595,-2.14595 -7.83738,-4.3852 -5.69143,-2.23925 -11.56946,-3.26557 l -3.91869,-0.74642 q -5.87803,-1.02633 -11.84937,-5.73809 -5.97133,-4.71175 -8.30388,-10.12328 l -33.86868,-75.85464 q -2.33256,-5.50483 -0.97968,-6.43785 1.35289,-0.93302 5.64478,3.35887 l 38.62709,38.8137 q 8.30389,8.11729 10.16994,10.07664 -1.95936,4.01198 -1.21293,8.72375 0.7464,4.71176 4.01198,8.07063 4.2919,4.29189 10.35654,4.29189 6.06463,0 10.44984,-4.29189 4.3852,-4.38521 4.3852,-10.44984 0,-6.06464 -4.3852,-10.35654 -3.26557,-3.26558 -7.93068,-4.05864 -4.66512,-0.79307 -8.67711,1.16627 -2.79906,-2.70576 -10.16993,-10.07663 l -38.81368,-38.81369 q -4.2919,-4.2919 -3.35887,-5.59813 0.93301,-1.30623 6.43784,1.02632 l 75.94793,33.86869 q 5.41153,2.42585 10.02998,8.35053 4.61846,5.92468 5.64479,11.89603 l 0.74641,3.82538 q 1.02632,5.87804 3.26558,11.56947 2.23924,5.69143 4.3852,7.83738 2.14594,2.14595 0.65311,6.5778 -1.49283,4.43186 -5.78473,8.72375 l -16.70108,16.88769 q -4.29191,4.2919 -8.81705,5.78474 z"
       id="path4188" /></g></svg>